<svg width="16" height="19" viewBox="0 0 16 19" fill="none" xmlns="http://www.w3.org/2000/svg">
<path d="M1.99998 0.666672C1.07498 0.666672 0.333313 1.40834 0.333313 2.33334V15.6667C0.333313 16.1087 0.508908 16.5326 0.821468 16.8452C1.13403 17.1577 1.55795 17.3333 1.99998 17.3333H5.33331V15.7417L7.07498 14H1.99998V12.3333H8.74165L10.4083 10.6667H1.99998V9H12.075L13.6666 7.40834V5.66667L8.66665 0.666672H1.99998ZM7.83331 1.91667L12.4166 6.5H7.83331V1.91667ZM13.7916 9.83334C13.73 9.83199 13.6687 9.8431 13.6114 9.86601C13.5541 9.88892 13.502 9.92316 13.4583 9.96667L12.6083 10.8167L14.35 12.55L15.2 11.7083C15.375 11.525 15.375 11.225 15.2 11.05L14.1166 9.96667C14.0741 9.92394 14.0234 9.89014 13.9676 9.86725C13.9118 9.84435 13.852 9.83282 13.7916 9.83334ZM12.1166 11.3083L6.99998 16.4333V18.1667H8.73331L13.8583 13.0417L12.1166 11.3083Z" fill="black"/>
</svg>
